<?xml version="1.0" encoding="UTF-8"?>
<svg viewBox="0 0 512 512">
    <path d="M216,0 L216,304 L512,304 L512,336 L216,336 L216,512 L120,512 L120,336 L0,336 L0,304 L120,304 L120,0 L216,0 Z M403.53609,352.001562 L458.442753,352.001562 C422.491455,427.679334 345.355801,480 256,480 C247.892193,480 239.884995,479.569241 232.000043,478.72936 L232.000043,430.377396 C239.847728,431.447306 247.85932,432 256,432 C317.784202,432 372.132716,400.164037 403.53609,352.001562 Z M104,352 L104,420.537054 C83.1095182,401.228996 65.9039016,377.992344 53.5564639,352 L104,352 Z M103.999043,91.4636904 L104.001151,167.21726 C88.7446176,193.280624 80,223.619105 80,256 C80,266.928027 80.9959708,277.623432 82.9020923,288.00058 L34.2685265,288.00058 C32.7735314,277.5491 32,266.864884 32,256 C32,190.955388 59.723651,132.385981 103.999043,91.4636904 Z M425.560036,109.620209 C459.482408,148.879457 480,200.043658 480,256 C480,266.864858 479.226472,277.54905 477.731484,288.000506 L429.097926,288.000506 C431.004035,277.623365 432,266.927992 432,256 C432,228.256605 425.580779,202.0125 414.146583,178.671929 L270.377153,248.970565 C271.416506,251.092338 272,253.478028 272,256 C272,264.836556 264.836556,272 256,272 C247.163444,272 240,264.836556 240,256 C240,247.163444 247.163444,240 256,240 C260.839538,240 265.177234,242.14864 268.111183,245.544014 L389.227847,140.989742 L425.560036,109.620209 Z M256,32 C297.810185,32 336.944932,43.4549172 370.437087,63.3976001 L345.91458,104.66938 C319.599375,89.0002296 288.850746,80 256,80 C247.85932,80 239.847728,80.5526937 232.000043,81.6226041 L232.000043,33.2706404 C239.884995,32.4307592 247.892193,32 256,32 Z" fill="currentColor"></path>
</svg>
